<svg width="4394" height="3019" viewBox="0 0 4394 3019" fill="none" xmlns="http://www.w3.org/2000/svg">
<g id="Frame 2">
<rect width="4394" height="3019" fill="white"/>
<g id="Frame 1" clip-path="url(#clip0_300_380)">
<rect id="Rectangle 1" x="679.154" y="322.262" width="2648.43" height="306.019" fill="#E9E9E9"/>
<rect id="Rectangle 2" x="1805.17" y="424.871" width="578.484" height="1213.88" fill="#E9E9E9"/>
<g id="stage">
<path d="M1850.48 375.008L1830.68 378.727C1829.44 376.537 1827.6 374.408 1825.17 372.342C1822.81 370.234 1819.57 368.498 1815.46 367.134C1811.35 365.771 1806.09 365.089 1799.68 365.089C1790.9 365.089 1783.58 366.432 1777.73 369.118C1771.94 371.763 1769.04 375.132 1769.04 379.223C1769.04 382.86 1771.04 385.733 1775.02 387.84C1779.01 389.948 1785.23 391.705 1793.7 393.11L1814.99 396.582C1827.82 398.648 1837.37 401.81 1843.66 406.067C1849.95 410.282 1853.1 415.717 1853.1 422.371C1853.1 427.827 1850.73 432.703 1846 437.002C1841.33 441.3 1834.79 444.689 1826.39 447.169C1817.98 449.648 1808.21 450.888 1797.06 450.888C1782.43 450.888 1770.32 448.781 1760.73 444.565C1751.14 440.349 1745.07 434.191 1742.52 426.091L1763.44 422.619C1765.43 427.744 1769.2 431.588 1774.74 434.15C1780.34 436.712 1787.66 437.994 1796.69 437.994C1806.96 437.994 1815.12 436.547 1821.16 433.654C1827.26 430.72 1830.31 427.207 1830.31 423.115C1830.31 419.809 1828.57 417.04 1825.08 414.808C1821.59 412.535 1816.24 410.84 1809.02 409.724L1785.11 406.005C1771.97 403.938 1762.32 400.735 1756.16 396.396C1750.05 392.015 1747 386.539 1747 379.967C1747 374.594 1749.28 369.841 1753.82 365.709C1758.43 361.576 1764.69 358.331 1772.59 355.975C1780.56 353.62 1789.59 352.442 1799.68 352.442C1813.87 352.442 1825.02 354.508 1833.11 358.641C1841.27 362.774 1847.06 368.23 1850.48 375.008Z" fill="black"/>
<path d="M1948.66 353.682V366.081H1874.32V353.682H1948.66ZM1895.99 330.868H1918.03V421.627C1918.03 425.76 1918.93 428.86 1920.73 430.926C1922.6 432.951 1924.97 434.315 1927.83 435.018C1930.76 435.679 1933.84 436.01 1937.08 436.01C1939.51 436.01 1941.5 435.927 1943.05 435.762C1944.61 435.555 1945.86 435.39 1946.79 435.266L1951.27 448.409C1949.78 448.781 1947.69 449.153 1945.02 449.524C1942.34 449.938 1938.95 450.144 1934.84 450.144C1928.61 450.144 1922.51 449.256 1916.53 447.479C1910.62 445.702 1905.7 442.994 1901.78 439.357C1897.92 435.72 1895.99 431.133 1895.99 425.595V330.868Z" fill="black"/>
<path d="M2024.02 451.136C2014.93 451.136 2006.69 450 1999.28 447.727C1991.87 445.412 1985.98 442.085 1981.63 437.746C1977.27 433.365 1975.09 428.075 1975.09 421.875C1975.09 416.42 1976.71 411.997 1979.94 408.608C1983.18 405.178 1987.51 402.492 1992.93 400.549C1998.34 398.607 2004.32 397.16 2010.86 396.21C2017.46 395.218 2024.09 394.432 2030.75 393.854C2039.47 393.11 2046.53 392.552 2051.95 392.18C2057.43 391.767 2061.41 391.085 2063.9 390.134C2066.46 389.184 2067.73 387.53 2067.73 385.175V384.679C2067.73 378.562 2065.21 373.809 2060.17 370.42C2055.19 367.031 2047.62 365.337 2037.47 365.337C2026.95 365.337 2018.7 366.866 2012.72 369.924C2006.75 372.983 2002.54 376.248 2000.12 379.719L1979.2 374.76C1982.93 368.974 1987.91 364.469 1994.14 361.245C2000.43 357.98 2007.28 355.707 2014.69 354.426C2022.16 353.103 2029.5 352.442 2036.73 352.442C2041.33 352.442 2046.63 352.814 2052.6 353.558C2058.64 354.26 2064.46 355.728 2070.07 357.959C2075.73 360.191 2080.43 363.559 2084.17 368.064C2087.9 372.569 2089.77 378.603 2089.77 386.167V448.905H2067.73V436.01H2066.61C2065.12 438.076 2062.63 440.287 2059.14 442.643C2055.65 444.999 2051.01 447.003 2045.22 448.657C2039.43 450.31 2032.37 451.136 2024.02 451.136ZM2027.39 437.994C2036.1 437.994 2043.45 436.857 2049.43 434.584C2055.47 432.311 2060.01 429.376 2063.06 425.781C2066.18 422.185 2067.73 418.403 2067.73 414.436V401.045C2066.8 401.789 2064.74 402.471 2061.57 403.091C2058.45 403.67 2054.84 404.186 2050.73 404.641C2046.69 405.054 2042.73 405.426 2038.87 405.757C2035.08 406.046 2031.99 406.294 2029.63 406.501C2023.9 406.997 2018.55 407.803 2013.56 408.918C2008.65 409.993 2004.66 411.625 2001.61 413.816C1998.62 415.965 1997.13 418.899 1997.13 422.619C1997.13 427.703 1999.96 431.546 2005.63 434.15C2011.35 436.712 2018.61 437.994 2027.39 437.994Z" fill="black"/>
<path d="M2187.9 486.597C2177.26 486.597 2168.1 485.688 2160.45 483.869C2152.79 482.092 2146.41 479.736 2141.3 476.802C2136.26 473.909 2132.24 470.809 2129.25 467.503L2146.81 459.32C2148.8 461.055 2151.32 463.039 2154.38 465.271C2157.43 467.544 2161.6 469.507 2166.89 471.16C2172.24 472.855 2179.25 473.702 2187.9 473.702C2199.48 473.702 2209.04 471.842 2216.57 468.123C2224.11 464.403 2227.87 458.576 2227.87 450.64V431.298H2226.01C2224.39 433.034 2222.08 435.183 2219.1 437.746C2216.17 440.267 2211.94 442.519 2206.39 444.503C2200.91 446.445 2193.51 447.417 2184.17 447.417C2172.59 447.417 2162.19 445.598 2152.97 441.961C2143.82 438.324 2136.57 433.034 2131.21 426.091C2125.92 419.147 2123.28 410.716 2123.28 400.797C2123.28 391.043 2125.86 382.55 2131.03 375.318C2136.19 368.044 2143.39 362.423 2152.6 358.455C2161.82 354.446 2172.46 352.442 2184.54 352.442C2193.88 352.442 2201.29 353.475 2206.77 355.542C2212.31 357.567 2216.54 359.881 2219.47 362.485C2222.46 365.047 2224.76 367.155 2226.38 368.808H2228.62V353.682H2249.91V451.632C2249.91 459.815 2247.11 466.47 2241.51 471.594C2235.97 476.761 2228.5 480.542 2219.1 482.939C2209.76 485.378 2199.36 486.597 2187.9 486.597ZM2187.16 434.274C2196 434.274 2203.47 432.931 2209.57 430.244C2215.67 427.558 2220.31 423.694 2223.48 418.651C2226.66 413.609 2228.25 407.575 2228.25 400.549C2228.25 393.689 2226.69 387.634 2223.58 382.385C2220.46 377.136 2215.86 373.024 2209.76 370.048C2203.65 367.072 2196.12 365.585 2187.16 365.585C2177.82 365.585 2170.03 367.155 2163.81 370.296C2157.64 373.437 2153.01 377.653 2149.89 382.943C2146.84 388.233 2145.32 394.102 2145.32 400.549C2145.32 407.162 2146.87 413.01 2149.99 418.094C2153.16 423.136 2157.83 427.103 2163.99 429.996C2170.22 432.848 2177.94 434.274 2187.16 434.274Z" fill="black"/>
<path d="M2350.4 450.888C2336.58 450.888 2324.66 448.863 2314.63 444.813C2304.67 440.721 2296.98 435.018 2291.57 427.703C2286.21 420.346 2283.53 411.791 2283.53 402.037C2283.53 392.283 2286.21 383.687 2291.57 376.248C2296.98 368.767 2304.52 362.939 2314.17 358.765C2323.88 354.55 2335.21 352.442 2348.16 352.442C2355.63 352.442 2363.01 353.268 2370.3 354.922C2377.58 356.575 2384.21 359.261 2390.19 362.981C2396.16 366.659 2400.93 371.536 2404.48 377.611C2408.03 383.687 2409.8 391.167 2409.8 400.053V406.253H2299.22V393.606H2387.39C2387.39 388.233 2385.77 383.439 2382.53 379.223C2379.35 375.008 2374.81 371.681 2368.89 369.242C2363.04 366.804 2356.13 365.585 2348.16 365.585C2339.38 365.585 2331.79 367.031 2325.37 369.924C2319.02 372.776 2314.14 376.496 2310.71 381.083C2307.29 385.671 2305.58 390.589 2305.58 395.838V404.269C2305.58 411.46 2307.44 417.556 2311.18 422.557C2314.98 427.517 2320.24 431.298 2326.96 433.902C2333.69 436.464 2341.5 437.746 2350.4 437.746C2356.19 437.746 2361.42 437.208 2366.09 436.134C2370.82 435.018 2374.9 433.365 2378.33 431.174C2381.75 428.942 2384.4 426.173 2386.26 422.867L2407.56 426.835C2405.32 431.629 2401.55 435.844 2396.26 439.481C2390.97 443.077 2384.43 445.887 2376.65 447.913C2368.86 449.896 2360.12 450.888 2350.4 450.888Z" fill="black"/>
</g>
</g>
<rect id="Rectangle 3" x="447.121" y="869.114" width="1118.19" height="1822.87" fill="#D9D9D9"/>
<rect id="Rectangle 4" x="2662.6" y="869.261" width="1118.11" height="1822.9" fill="#D9D9D9"/>
</g>
<defs>
<clipPath id="clip0_300_380">
<rect width="3101.85" height="1458.46" fill="white" transform="translate(678.741 322.262)"/>
</clipPath>
</defs>
</svg>
