<svg xmlns="http://www.w3.org/2000/svg" width="3362" height="2409" fill="none" viewBox="0 0 3362 2409">
  <g class="section_layout">
    <path fill="#fff" d="M0 0h3362v2409H0z"/>
    <path fill="#D9D9D9" d="M434 1161h385.552v638.55H1428V2161H434V1161Z" class="section"/>
    <path fill="#D9D9D9" d="M931 1050h1500v611.374H931z" class="section"/>
    <path fill="#D9D9D9" d="M2928 1161h-389.09v635.54H1934V2161h994V1161Z" class="section"/>
    <g class="stage">
      <path fill="#D9D9D9" d="M807 308h1748v565H807z"/>
      <path fill="#000" d="m1466.27 575.176-18.82 5.327c-1.19-3.137-2.93-6.185-5.24-9.144-2.25-3.019-5.33-5.505-9.23-7.458-3.91-1.953-8.91-2.929-15.01-2.929-8.34 0-15.3 1.923-20.86 5.77-5.51 3.788-8.26 8.612-8.26 14.471 0 5.208 1.9 9.322 5.68 12.34 3.79 3.019 9.71 5.534 17.76 7.546l20.24 4.972c12.19 2.959 21.28 7.487 27.26 13.583 5.97 6.037 8.96 13.82 8.96 23.349 0 7.812-2.25 14.796-6.74 20.952-4.44 6.155-10.66 11.008-18.65 14.559-7.99 3.551-17.28 5.327-27.87 5.327-13.91 0-25.42-3.019-34.54-9.055-9.11-6.037-14.88-14.856-17.31-26.456l19.89-4.972c1.89 7.339 5.47 12.843 10.74 16.513 5.32 3.669 12.28 5.504 20.86 5.504 9.77 0 17.52-2.071 23.26-6.214 5.8-4.203 8.7-9.233 8.7-15.093 0-4.735-1.66-8.7-4.97-11.896-3.32-3.255-8.41-5.682-15.27-7.28l-22.73-5.327c-12.49-2.959-21.66-7.546-27.52-13.76-5.8-6.274-8.7-14.116-8.7-23.527 0-7.694 2.16-14.5 6.48-20.419 4.38-5.918 10.33-10.564 17.85-13.938 7.57-3.373 16.15-5.06 25.74-5.06 13.5 0 24.09 2.959 31.78 8.878 7.76 5.918 13.26 13.731 16.52 23.437Zm93.33-30.54v17.756h-70.67v-17.756h70.67Zm-50.08-32.67h20.96v129.972c0 5.918.85 10.357 2.57 13.316 1.78 2.9 4.03 4.853 6.75 5.86 2.78.947 5.71 1.42 8.79 1.42 2.31 0 4.2-.118 5.68-.355l3.55-.71 4.26 18.821c-1.42.532-3.4 1.065-5.95 1.598-2.54.592-5.77.888-9.67.888-5.92 0-11.72-1.273-17.4-3.818-5.63-2.545-10.3-6.422-14.03-11.63-3.67-5.208-5.51-11.778-5.51-19.709V511.966Zm121.72 172.23c-8.64 0-16.48-1.628-23.53-4.883-7.04-3.314-12.63-8.079-16.78-14.293-4.14-6.274-6.21-13.85-6.21-22.727 0-7.813 1.54-14.146 4.62-18.999 3.07-4.912 7.19-8.759 12.34-11.541 5.15-2.782 10.83-4.853 17.04-6.215 6.28-1.42 12.58-2.545 18.91-3.373 8.29-1.066 15.01-1.865 20.15-2.397 5.21-.592 9-1.569 11.37-2.93 2.42-1.361 3.64-3.729 3.64-7.102v-.71c0-8.76-2.4-15.566-7.19-20.419-4.74-4.854-11.93-7.28-21.58-7.28-10 0-17.84 2.19-23.52 6.569-5.68 4.38-9.68 9.056-11.99 14.027l-19.88-7.102c3.55-8.286 8.28-14.737 14.2-19.354 5.98-4.675 12.49-7.931 19.53-9.765 7.1-1.894 14.09-2.841 20.95-2.841 4.38 0 9.41.532 15.1 1.598 5.74 1.006 11.27 3.107 16.6 6.303 5.38 3.196 9.85 8.02 13.4 14.471 3.55 6.451 5.33 15.092 5.33 25.923V681h-20.95v-18.466h-1.07c-1.42 2.959-3.79 6.126-7.1 9.499-3.31 3.374-7.72 6.244-13.23 8.612-5.5 2.367-12.22 3.551-20.15 3.551Zm3.2-18.821c8.28 0 15.27-1.628 20.95-4.883 5.74-3.255 10.06-7.457 12.96-12.606 2.96-5.149 4.44-10.565 4.44-16.247v-19.176c-.89 1.065-2.84 2.042-5.86 2.93-2.96.828-6.39 1.568-10.3 2.219-3.85.592-7.61 1.125-11.27 1.598-3.62.415-6.54.77-8.79 1.066-5.45.71-10.54 1.864-15.27 3.462-4.68 1.539-8.47 3.877-11.37 7.013-2.84 3.078-4.26 7.28-4.26 12.607 0 7.28 2.69 12.784 8.08 16.513 5.45 3.669 12.34 5.504 20.69 5.504Zm152.58 69.602c-10.12 0-18.82-1.302-26.1-3.906-7.28-2.545-13.34-5.919-18.2-10.121-4.79-4.143-8.61-8.582-11.45-13.316l16.69-11.719c1.89 2.486 4.29 5.326 7.19 8.523 2.9 3.255 6.87 6.066 11.9 8.433 5.09 2.427 11.75 3.64 19.97 3.64 11.01 0 20.1-2.663 27.26-7.99 7.16-5.326 10.74-13.672 10.74-25.035v-27.699h-1.77c-1.54 2.486-3.73 5.563-6.57 9.233-2.79 3.61-6.81 6.836-12.08 9.677-5.21 2.781-12.25 4.172-21.13 4.172-11.01 0-20.89-2.604-29.65-7.812-8.7-5.209-15.6-12.784-20.69-22.727-5.03-9.944-7.54-22.018-7.54-36.222 0-13.968 2.45-26.13 7.37-36.488 4.91-10.417 11.75-18.466 20.51-24.148 8.75-5.741 18.88-8.611 30.36-8.611 8.88 0 15.92 1.479 21.13 4.439 5.26 2.9 9.29 6.214 12.07 9.943 2.84 3.669 5.03 6.688 6.57 9.055h2.13v-21.662h20.24v140.27c0 11.719-2.66 21.248-7.99 28.587-5.27 7.398-12.37 12.814-21.3 16.246-8.88 3.492-18.77 5.238-29.66 5.238Zm-.71-74.929c8.41 0 15.51-1.923 21.31-5.77 5.8-3.847 10.21-9.381 13.23-16.602 3.02-7.221 4.53-15.862 4.53-25.923 0-9.825-1.48-18.496-4.44-26.012-2.96-7.517-7.34-13.406-13.14-17.667-5.8-4.262-12.96-6.392-21.49-6.392-8.87 0-16.27 2.249-22.19 6.747-5.86 4.498-10.27 10.535-13.23 18.111-2.9 7.576-4.35 15.98-4.35 25.213 0 9.47 1.48 17.844 4.44 25.124 3.02 7.221 7.46 12.903 13.32 17.046 5.91 4.083 13.25 6.125 22.01 6.125Zm155.19 23.793c-13.14 0-24.48-2.9-34-8.7-9.47-5.86-16.78-14.027-21.93-24.503-5.09-10.535-7.64-22.787-7.64-36.754 0-13.968 2.55-26.279 7.64-36.932 5.15-10.713 12.31-19.058 21.48-25.036 9.23-6.037 20.01-9.055 32.32-9.055 7.1 0 14.11 1.184 21.04 3.551 6.92 2.367 13.23 6.214 18.91 11.541 5.68 5.268 10.21 12.252 13.58 20.952 3.37 8.7 5.06 19.413 5.06 32.138v8.877h-105.11v-18.11h83.8c0-7.694-1.53-14.56-4.61-20.597-3.02-6.037-7.34-10.801-12.96-14.293-5.57-3.492-12.14-5.238-19.71-5.238-8.35 0-15.57 2.071-21.66 6.214-6.04 4.084-10.69 9.411-13.94 15.98-3.26 6.57-4.89 13.613-4.89 21.13v12.074c0 10.298 1.78 19.028 5.33 26.189 3.61 7.102 8.61 12.518 15 16.247 6.4 3.669 13.82 5.504 22.29 5.504 5.5 0 10.47-.77 14.91-2.308 4.5-1.598 8.38-3.966 11.63-7.103 3.26-3.196 5.77-7.161 7.55-11.896l20.24 5.682c-2.13 6.865-5.71 12.902-10.74 18.111-5.03 5.149-11.25 9.173-18.65 12.074-7.39 2.84-15.71 4.261-24.94 4.261Z" class="stage"/>
    </g>
  </g>
</svg>
